<?xml version="1.0" standalone="no"?>
<!DOCTYPE svg PUBLIC "-//W3C//DTD SVG 20010904//EN"
 "http://www.w3.org/TR/2001/REC-SVG-20010904/DTD/svg10.dtd">
<svg version="1.0" xmlns="http://www.w3.org/2000/svg"
 width="200.000000pt" height="100.000000pt" viewBox="0 0 200.000000 100.000000"
 preserveAspectRatio="xMidYMid meet">
<metadata>
Created by potrace 1.16, written by Peter Selinger 2001-2019
</metadata>
<g transform="translate(0.000000,100.000000) scale(0.015198,-0.014045)"
fill="#000000" stroke="none">
<path d="M6435 6676 c-38 -8 -95 -24 -125 -36 -127 -50 -5811 -2904 -5849
-2936 -22 -19 -52 -60 -68 -92 -24 -49 -28 -69 -28 -142 0 -73 4 -93 28 -142
15 -31 44 -71 63 -88 50 -44 5686 -2860 5789 -2893 227 -71 485 -61 704 28 35
14 1336 662 2891 1440 2210 1105 2837 1423 2866 1451 56 56 79 115 79 204 0
62 -5 85 -28 132 -15 32 -45 70 -65 86 -20 17 -613 318 -1317 669 -1406 703
-1341 675 -1530 675 -186 0 -155 13 -1197 -508 -871 -436 -952 -474 -998 -474
-45 0 -90 20 -448 199 -228 115 -425 207 -462 217 -88 24 -272 25 -360 2 -43
-12 -561 -265 -1530 -748 -903 -450 -1485 -735 -1516 -742 -104 -22 -137 -11
-508 174 -187 93 -349 177 -360 186 -30 27 -56 88 -56 132 0 44 26 105 56 131
32 28 3857 1936 3920 1956 80 24 256 24 339 0 33 -10 211 -92 395 -183 297
-146 345 -167 420 -180 101 -18 201 -12 298 18 66 20 561 262 615 300 40 28
67 88 67 147 0 61 -13 97 -48 135 -34 35 -1628 835 -1725 865 -88 27 -222 34
-312 17z m3530 -2741 c73 -18 626 -289 672 -329 46 -39 65 -80 65 -136 0 -51
-18 -94 -54 -127 -12 -11 -897 -458 -1966 -992 -1374 -687 -1961 -976 -2005
-986 -75 -18 -154 -19 -233 -3 -77 15 -1755 851 -1796 894 -64 69 -62 170 5
242 22 24 1678 858 1748 881 72 23 151 31 223 21 63 -9 114 -31 456 -200 215
-106 411 -197 445 -205 75 -19 172 -19 252 0 42 10 350 159 980 473 571 285
937 463 968 469 75 16 173 15 240 -2z"/>
</g>
</svg>
